M48
METRIC,TZ
T1C0.701
T2C0.800
T3C0.813
T4C1.001
T5C1.016
T6C1.499
T7C2.057
T8C2.301
T9C3.000
T10C1.499
%
G90
G05
T1
X107.645Y-104.546
X110.414Y-102.21
X117.805Y-104.546
X120.574Y-102.21
X124.43Y-105.791
X124.43Y-115.951
X130.805Y-90.221
X130.805Y-100.381
X132.685Y-93.193
X132.685Y-103.353
X133.279Y-73.
X133.279Y-83.16
X135.256Y-101.501
X145.416Y-101.501
X147.503Y-72.847
X147.503Y-83.007
X149.606Y-101.58
X159.766Y-101.58
X164.953Y-72.822
X164.953Y-82.982
X166.624Y-102.083
X167.767Y-66.04
X176.784Y-102.083
X177.927Y-66.04
X182.123Y-73.025
X182.123Y-83.185
X184.074Y-101.907
X194.234Y-101.907
T2
X92.625Y-74.304
X95.453Y-68.605
X96.317Y-80.366
X96.85Y-98.196
X97.663Y-67.513
X98.628Y-74.828
X100.254Y-98.654
X100.508Y-91.11
X102.718Y-72.06
X103.556Y-66.192
X104.038Y-76.556
X104.496Y-73.965
X105.664Y-105.664
X105.842Y-79.988
X105.842Y-91.186
X111.963Y-71.806
X112.497Y-90.602
X112.624Y-88.824
X115.697Y-90.754
X115.849Y-73.558
X119.913Y-89.992
X120.523Y-80.061
X120.828Y-98.374
X122.022Y-90.145
X123.139Y-83.693
X123.143Y-72.542
X123.342Y-86.106
X125.247Y-102.21
X128.143Y-72.542
X128.626Y-114.097
X130.505Y-96.241
X133.401Y-98.501
X134.595Y-69.494
X136.26Y-91.237
X138.557Y-101.321
X138.76Y-91.237
X141.808Y-91.262
X144.308Y-91.262
X150.856Y-69.494
X150.891Y-91.161
X153.391Y-91.161
X156.312Y-91.084
X158.812Y-91.084
X159.715Y-69.494
X159.995Y-87.02
X162.154Y-70.891
X162.611Y-100.762
X167.807Y-91.262
X170.307Y-91.262
X171.602Y-102.641
X172.39Y-68.301
X173.293Y-91.44
X175.793Y-91.44
X176.555Y-97.282
X178.206Y-86.995
X179.045Y-70.587
X182.194Y-70.409
X185.333Y-91.542
X187.833Y-91.542
X191.2Y-91.567
X193.7Y-91.567
X194.049Y-97.536
X194.716Y-87.757
X199.441Y-83.871
X201.625Y-81.788
X201.625Y-86.788
T3
X137.49Y-97.028
X142.57Y-97.028
X151.994Y-96.977
X157.074Y-96.977
X169.088Y-97.282
X174.168Y-97.282
X186.817Y-97.536
X191.897Y-97.536
T4
X93.193Y-68.961
X93.193Y-79.121
X93.396Y-98.577
X97.384Y-100.838
X98.222Y-93.193
X98.222Y-95.733
X102.768Y-93.193
X102.768Y-95.733
X103.556Y-98.577
X106.451Y-69.875
X107.544Y-100.838
X109.626Y-108.712
X111.455Y-93.243
X111.455Y-95.783
X112.166Y-108.712
X114.198Y-108.712
X114.884Y-98.577
X116.027Y-93.243
X116.027Y-95.783
X116.611Y-69.875
X116.738Y-108.712
X119.812Y-69.748
X120.548Y-93.243
X120.548Y-95.783
X125.044Y-98.577
X125.12Y-93.243
X125.12Y-95.783
X129.972Y-69.748
X161.773Y-72.974
X161.773Y-83.134
X179.248Y-73.152
X179.248Y-83.312
X196.469Y-73.127
X196.469Y-83.287
X199.39Y-78.867
X199.39Y-89.027
X199.39Y-91.77
X199.39Y-101.93
T5
X94.539Y-82.626
X94.539Y-85.166
X94.539Y-87.706
X94.539Y-90.246
X95.58Y-71.552
X95.58Y-78.054
X100.101Y-71.552
X100.101Y-78.054
X125.933Y-77.267
X125.933Y-79.807
X125.933Y-82.347
X125.933Y-84.887
X125.933Y-87.427
X125.933Y-89.967
X129.591Y-86.944
X132.131Y-86.944
T6
X126.464Y-108.712
X129.164Y-108.712
X131.564Y-113.713
X133.962Y-108.712
X136.662Y-108.712
X139.469Y-108.61
X142.169Y-108.61
X144.569Y-113.612
X146.967Y-108.61
X149.667Y-108.61
X153.457Y-108.763
X156.157Y-108.763
X158.557Y-113.764
X160.955Y-108.763
X163.655Y-108.763
X166.614Y-108.864
X169.314Y-108.864
X171.714Y-113.866
X174.112Y-108.864
X176.812Y-108.864
T7
X107.29Y-66.04
X112.37Y-66.04
X122.58Y-65.862
X127.66Y-65.862
X138.379Y-65.786
X143.459Y-65.786
X153.924Y-65.761
X159.004Y-65.761
T8
X106.578Y-111.379
X120.294Y-111.379
T9
X93.751Y-62.382
X93.98Y-116.383
X201.041Y-62.433
X201.041Y-116.738
T10
X126.566Y-113.713
X131.564Y-108.712
X136.563Y-113.713
X139.57Y-113.612
X144.569Y-108.61
X149.568Y-113.612
X153.558Y-113.764
X158.557Y-108.763
X163.556Y-113.764
X166.715Y-113.866
X171.714Y-108.864
X176.713Y-113.866
T5
X182.55Y-110.82G85X182.55Y-109.296
G05
X186.868Y-106.248G85X188.392Y-106.248
G05
X186.868Y-112.344G85X188.392Y-112.344
G05
T0
M30
